<?xml version="1.0" encoding="utf-8"?>
<!-- Generator: Adobe Illustrator 16.0.0, SVG Export Plug-In . SVG Version: 6.00 Build 0)  -->
<!DOCTYPE svg PUBLIC "-//W3C//DTD SVG 1.1//EN" "http://www.w3.org/Graphics/SVG/1.1/DTD/svg11.dtd">
<svg version="1.1" id="Logo_1_" xmlns="http://www.w3.org/2000/svg" xmlns:xlink="http://www.w3.org/1999/xlink" x="0px" y="0px"
	 width="210px" height="65px" viewBox="0 0 210 65" enable-background="new 0 0 210 65" xml:space="preserve">
<rect id="Background" display="none" fill="#7F7777" width="210" height="65"/>
<g id="Esfera_2_">
	<path fill="#9769B0" d="M30.319,2.461c2.209-0.209,4.439-0.15,6.629,0.213c0.731,0.123,1.451,0.28,2.165,0.475
		c0.952,0.258,1.896,0.564,2.823,0.926c3.717,1.44,7.203,3.709,10.209,6.809c5.172,5.336,8.022,12.736,8.52,19.766h1.369v-0.01
		c-0.585-7.003-3.473-14.357-8.631-19.679c-3.963-4.088-8.751-6.754-13.796-8.002C38.6,2.709,37.578,2.52,36.547,2.4
		c-0.936-0.102-1.879-0.152-2.818-0.152C32.592,2.248,31.452,2.32,30.319,2.461"/>
	<path fill="#9769B0" d="M17.163,5.953C3.305,14.71-1.146,33.562,7.223,48.061c2.594,4.492,6.113,8.039,10.146,10.535
		c-3.66-2.447-6.85-5.787-9.248-9.941C-0.213,34.215,4.217,15.438,18.02,6.718c7.725-4.882,16.742-5.579,24.652-2.716
		c0.988,0.357,1.961,0.771,2.912,1.24c2.926,1.451,5.588,3.443,7.908,5.809c-2.305-2.533-5.008-4.664-7.994-6.242
		c-0.967-0.51-1.957-0.961-2.968-1.353c-3.271-1.267-6.743-1.924-10.242-1.924C27.127,1.532,21.901,2.959,17.163,5.953"/>
	<path fill="#9769B0" d="M58.155,44.855C56.79,48,54.88,50.949,52.427,53.55c-11.183,11.867-29.442,12-40.782,0.302
		c-0.793-0.816-1.53-1.672-2.211-2.556c0.844,1.164,1.776,2.281,2.802,3.34c11.529,11.894,30.089,11.759,41.457-0.305
		c2.672-2.834,4.7-6.052,6.1-9.474l-1.365-0.004h-0.273V44.855z"/>
	<path fill="#9769B0" d="M32.313,3.756c-7.467,0.045-15.09,3.409-20.122,9.229C8.286,17.467,5.752,23.192,4.844,29.17
		c-0.2,1.239-0.358,2.52-0.348,3.781c0.712-6.08,5.869-16.049,10.572-19.74c5.059-3.969,12.211-5.77,18.361-5.412
		c8.475,0.466,19.586,8.453,21.949,18.55c0.627-2.337,0.783-4.124,0.878-7.348c-4.047-9.75-15.87-15.247-23.691-15.247
		C32.48,3.754,32.397,3.755,32.313,3.756"/>
	<path fill="#9769B0" d="M7.047,42.459c-0.075,0.424,0.057,0.842,0.203,1.234c3.637,9.524,12.221,16.459,21.921,17.858
		c11.716,1.755,23.095-5.057,28.015-16.532c-4.976,9.967-16.168,16.362-26.52,14.239c-10.227-2.098-19.6-10.299-21.363-21.383
		C7.792,39.342,7.412,40.348,7.047,42.459"/>
</g>
<g id="Logo_3_">
	<g id="Letras_2_">
		<path fill="#FFFFFF" d="M193.982,42.795l-2.676-7.967c-0.029-0.096-0.074-0.213-0.145-0.279c-0.064-0.059-0.141-0.08-0.223-0.08
			c-0.08,0-0.146,0.016-0.213,0.08c-0.064,0.061-0.109,0.191-0.134,0.277l-0.004,0.01l-2.69,8.021
			c-0.172,0.623-0.719,1.053-1.338,1.053c-0.771,0-1.394-0.654-1.394-1.457c0-0.193,0.037-0.383,0.108-0.561l2.697-7.896
			c0.215-0.681,0.551-1.363,1.103-1.812c0.53-0.431,1.202-0.572,1.862-0.572c0.681,0,1.346,0.158,1.894,0.6
			c0.547,0.447,0.872,1.09,1.063,1.775l2.734,7.965c0.059,0.16,0.086,0.334,0.086,0.506c0,0.801-0.619,1.451-1.385,1.451
			C194.689,43.91,194.132,43.447,193.982,42.795"/>
		<path fill="#FFFFFF" d="M205.635,41.053c0.756,0,1.366,0.641,1.366,1.43c0,0.787-0.612,1.427-1.366,1.427h-2.799
			c-1.001,0-2.227-0.158-2.97-0.933c-0.743-0.776-0.897-2.053-0.897-3.104c0-2.266-0.002-4.531-0.002-6.796
			c0-0.8,0.617-1.444,1.383-1.444c0.762,0,1.381,0.645,1.381,1.444c0,2.216,0.002,4.431,0.002,6.646
			c0,0.324,0.033,0.812,0.268,1.051c0.238,0.244,0.706,0.281,1.021,0.281C203.891,41.055,204.762,41.053,205.635,41.053"/>
		<path fill="#FFFFFF" d="M157.35,42.541c0,0.633-0.49,1.146-1.095,1.146h-5.69c-1.068,0-2.573-0.138-3.439-0.877
			c-0.796-0.681-0.977-1.834-0.977-2.851v-4.431c0-1.012,0.187-2.155,0.977-2.833c0.866-0.744,2.367-0.871,3.439-0.871h5.69
			c0.604-0.002,1.095,0.513,1.095,1.146c0,0.632-0.49,1.146-1.095,1.146h-5.526c-0.391,0-0.949,0.023-1.271,0.289
			c-0.326,0.27-0.397,0.738-0.397,1.15v0.991h7.195c0.604,0,1.096,0.5,1.096,1.134c0,0.647-0.513,1.164-1.131,1.145h-7.16v1.109
			c0,0.407,0.065,0.896,0.395,1.166c0.318,0.262,0.887,0.289,1.275,0.289h5.49C156.838,41.377,157.35,41.893,157.35,42.541"/>
		<path fill="#FFFFFF" d="M132.365,30.607l0.002,11.645c0,0.896-0.706,1.615-1.561,1.615s-1.555-0.725-1.557-1.617l-0.001-1.426
			V29.033c0-0.891,0.69-1.613,1.542-1.613h7.656c1.328,0,2.619,0.336,3.584,1.34c0.969,1.002,1.291,2.35,1.291,3.738v6.258
			c0,1.393-0.328,2.734-1.291,3.746c-0.965,1.014-2.248,1.355-3.584,1.355l-2.773,0.006c-0.82,0-1.463-0.766-1.463-1.605
			c0-0.855,0.66-1.609,1.49-1.609l2.42-0.002c0.559,0,1.141-0.125,1.553-0.551c0.411-0.424,0.533-1.022,0.533-1.606v-5.697
			c0-0.591-0.125-1.197-0.539-1.627c-0.414-0.428-0.984-0.557-1.547-0.557L132.365,30.607L132.365,30.607z"/>
		<path fill="#FFFFFF" d="M172.73,40.67c0,0.896-0.225,1.744-0.854,2.379c-0.644,0.645-1.504,0.855-2.371,0.855
			c-0.759,0-1.553-0.152-2.149-0.676c-0.631-0.554-0.951-1.486-1.201-2.281l-1.793-5.682c-0.055-0.183-0.148-0.515-0.273-0.652
			c-0.096-0.105-0.229-0.137-0.361-0.137c-0.146,0-0.299,0.03-0.398,0.151c-0.109,0.136-0.135,0.343-0.135,0.513
			c0,2.438,0,4.879,0,7.319c0,0.797-0.618,1.442-1.381,1.442c-0.764,0-1.383-0.646-1.383-1.442v-7.629
			c0-0.892,0.228-1.733,0.857-2.361c0.643-0.641,1.505-0.85,2.369-0.85c0.76,0,1.552,0.156,2.148,0.679
			c0.631,0.552,0.952,1.485,1.203,2.28l1.791,5.672c0.059,0.183,0.15,0.524,0.277,0.664c0.094,0.104,0.227,0.135,0.361,0.135
			c0.148,0,0.293-0.036,0.394-0.161c0.11-0.14,0.14-0.345,0.14-0.519c0-2.445-0.003-4.89-0.003-7.334
			c0-0.798,0.619-1.444,1.382-1.444c0.764,0,1.381,0.646,1.381,1.444C172.729,35.582,172.73,38.127,172.73,40.67"/>
		<path fill="#FFFFFF" d="M53.393,31.828c-0.811-0.012-1.475,0.672-1.475,1.521v8.815c0,0.832,0.646,1.51,1.445,1.51
			c0.797,0,1.443-0.678,1.443-1.51v-2.569h4.951c1.012,0,2.25-0.136,3.104-0.755c0.691-0.502,0.97-1.207,0.97-2.073v-2.129
			c0-0.865-0.277-1.566-0.968-2.065c-0.856-0.616-2.097-0.745-3.106-0.745H53.393z M54.807,34.162h4.609
			c0.34,0,0.799,0.023,1.092,0.223c0.303,0.205,0.412,0.551,0.412,0.914v0.826c0,0.359-0.109,0.707-0.41,0.9
			c-0.289,0.188-0.759,0.211-1.094,0.211h-4.609V34.162L54.807,34.162z"/>
		<path fill="#FFFFFF" d="M122.68,42.541c0,0.633-0.492,1.146-1.095,1.146h-5.69c-1.07,0-2.576-0.138-3.44-0.877
			c-0.795-0.681-0.976-1.834-0.976-2.851v-4.431c0-1.012,0.187-2.155,0.976-2.833c0.866-0.744,2.369-0.871,3.44-0.871h5.69
			c0.603-0.002,1.095,0.513,1.095,1.146c0,0.632-0.492,1.146-1.095,1.146h-5.526c-0.392,0-0.951,0.023-1.271,0.289
			c-0.328,0.27-0.396,0.738-0.396,1.15v0.991h7.193c0.604,0,1.096,0.5,1.096,1.134c0,0.647-0.513,1.164-1.134,1.145h-7.155v1.109
			c0,0.407,0.064,0.896,0.393,1.166c0.318,0.262,0.887,0.289,1.275,0.289h5.487C122.168,41.377,122.68,41.893,122.68,42.541"/>
		<path fill="#FFFFFF" d="M99.182,42.164c0.002,0.834-0.648,1.51-1.443,1.51c-0.794,0-1.434-0.662-1.445-1.486l-0.012-8.873
			c0.014-0.843,0.688-1.518,1.496-1.485l6.275-0.002c1.044,0,2.429,0.109,3.345,0.69c0.689,0.438,0.988,1.079,0.988,1.92v1.402
			c0,0.43-0.068,0.936-0.346,1.275c-0.284,0.354-0.773,0.527-1.189,0.619l-1.555,0.348l1.537,0.42
			c0.271,0.072,0.557,0.197,0.756,0.412c0.221,0.236,0.381,0.73,0.469,1.043c0.135,0.566,0.475,1.664,0.475,2.207
			c0,0.834-0.647,1.51-1.444,1.51c-0.733,0-1.342-0.572-1.433-1.318l-0.429-1.676c-0.083-0.393-0.242-0.775-0.521-1.068
			c-0.273-0.282-0.609-0.434-0.996-0.434h-1.26c-0.639,0.105-1.221-0.408-1.221-1.088c0-0.609,0.471-1.102,1.054-1.102
			c0.581,0,1.162,0.002,1.743,0.002c0.325,0,0.721-0.029,1.006-0.203c0.293-0.172,0.441-0.473,0.441-0.826v-0.732
			c0-0.358-0.145-0.662-0.441-0.848c-0.289-0.182-0.676-0.219-1.006-0.219h-4.859L99.182,42.164z"/>
		<path fill="#FFFFFF" d="M93.165,42.541c0,0.633-0.491,1.146-1.095,1.146h-5.69c-1.068,0-2.574-0.138-3.439-0.877
			c-0.797-0.681-0.977-1.834-0.977-2.851v-4.431c0-1.012,0.186-2.155,0.977-2.833c0.865-0.744,2.368-0.871,3.439-0.871h5.69
			c0.604-0.002,1.095,0.513,1.095,1.146c0,0.632-0.491,1.146-1.095,1.146h-5.524c-0.393,0-0.953,0.023-1.271,0.289
			c-0.328,0.27-0.398,0.738-0.398,1.15v0.991h7.194c0.604,0,1.095,0.5,1.095,1.134c0,0.647-0.512,1.164-1.131,1.145h-7.158v1.109
			c0,0.407,0.064,0.896,0.393,1.166c0.319,0.262,0.888,0.289,1.277,0.289h5.488C92.653,41.377,93.165,41.893,93.165,42.541"/>
		<path fill="#FFFFFF" d="M69.226,42.164c0,0.834-0.647,1.51-1.444,1.51c-0.798,0-1.444-0.676-1.444-1.51v-8.771
			c-0.028-0.856,0.626-1.565,1.444-1.565c0.797,0,1.444,0.676,1.444,1.51v2.99h6.812v-2.937c-0.026-0.856,0.626-1.563,1.443-1.563
			c0.798,0,1.445,0.676,1.445,1.51v8.828c0,0.834-0.647,1.51-1.445,1.51c-0.797,0-1.443-0.676-1.443-1.51V38.66h-6.812V42.164z"/>
		<path fill="#FFFFFF" d="M48.741,29.012c0-0.803-0.637-1.428-1.406-1.412l-6.574-0.002c-1.303-0.002-2.598,0.304-3.58,1.253
			c-0.941,0.911-1.289,2.112-1.289,3.43c0,1.312,0.35,2.513,1.289,3.425c0.98,0.948,2.277,1.258,3.58,1.258h3.604
			c0.572,0,1.207,0.095,1.674,0.461c0.455,0.359,0.63,0.89,0.63,1.47c0,0.578-0.179,1.1-0.628,1.459
			c-0.469,0.377-1.101,0.473-1.676,0.473h-6.727l-0.006-0.002c-0.775-0.029-1.42,0.611-1.42,1.426c0,0.803,0.623,1.434,1.391,1.424
			h6.682c1.369,0,2.78-0.289,3.83-1.27c0.986-0.922,1.346-2.156,1.346-3.51c0-1.353-0.359-2.588-1.346-3.511
			c-1.05-0.979-2.461-1.27-3.83-1.27h-3.588c-0.518,0-1.073-0.099-1.483-0.455c-0.399-0.351-0.55-0.849-0.55-1.378
			c0-0.536,0.146-1.04,0.548-1.397c0.409-0.361,0.974-0.465,1.485-0.45h6.695c0.297,0,0.811-0.411,1.003-0.63
			C48.581,29.588,48.741,29.312,48.741,29.012"/>
		<path fill="#FFFFFF" d="M181.325,34.449l-0.002,8.004c0.008,0.807-0.607,1.457-1.38,1.457c-0.764,0-1.383-0.648-1.383-1.445
			v-8.016c-0.758,0-1.518,0-2.274,0c-0.748,0-1.356-0.635-1.356-1.418c0-0.785,0.608-1.42,1.356-1.42c2.435,0,4.864,0,7.3,0
			c0.748,0,1.355,0.635,1.355,1.42c0,0.783-0.607,1.418-1.355,1.418C182.831,34.449,182.079,34.449,181.325,34.449"/>
		<path fill="#FFFFFF" d="M167.677,57.535c0-0.914-0.245-1.742-0.907-2.363c-0.703-0.658-1.647-0.854-2.564-0.854h-2.364
			c-0.327,0-0.678-0.062-0.937-0.285c-0.247-0.217-0.34-0.527-0.34-0.855c0-0.332,0.09-0.648,0.34-0.869
			c0.257-0.227,0.613-0.289,0.937-0.281h4.41c0.218,0,0.569-0.274,0.71-0.438c0.137-0.154,0.244-0.352,0.244-0.566
			c0-0.565-0.449-1.008-0.991-0.996l-4.33-0.002c-0.875,0-1.743,0.207-2.399,0.845c-0.635,0.612-0.87,1.424-0.87,2.31
			c0,0.885,0.237,1.69,0.87,2.307c0.656,0.637,1.524,0.846,2.399,0.846h2.374c0.362,0,0.77,0.057,1.062,0.291
			c0.283,0.223,0.39,0.553,0.39,0.914c0,0.359-0.106,0.682-0.39,0.906c-0.295,0.238-0.699,0.297-1.062,0.297h-4.433
			c-0.55-0.02-1.003,0.432-1.003,1.006c0,0.566,0.439,1.012,0.98,1.006h4.401c0.917,0,1.862-0.195,2.565-0.854
			C167.434,59.277,167.677,58.447,167.677,57.535"/>
		<path fill="#FFFFFF" d="M197.792,55.531v2.264c0,0.258,0.056,0.514,0.233,0.699c0.182,0.189,0.422,0.248,0.67,0.248h1.654
			c0.25,0,0.489-0.059,0.67-0.248c0.18-0.186,0.235-0.441,0.235-0.699v-2.264c0-0.256-0.057-0.51-0.235-0.697
			c-0.181-0.191-0.42-0.25-0.67-0.25h-1.654c-0.248,0-0.488,0.059-0.67,0.25C197.848,55.021,197.792,55.275,197.792,55.531
			 M198.393,52.553h2.264c0.703,0,1.392,0.176,1.902,0.711c0.512,0.537,0.683,1.256,0.683,1.992v2.818
			c0,0.734-0.171,1.453-0.683,1.988c-0.512,0.537-1.199,0.711-1.902,0.711h-2.264c-0.705,0-1.395-0.174-1.904-0.711
			c-0.512-0.535-0.68-1.254-0.68-1.988v-2.818c0-0.736,0.168-1.455,0.68-1.992C196.999,52.729,197.688,52.553,198.393,52.553"/>
		<path fill="#FFFFFF" d="M192.635,53.689c-0.047-0.609,0.42-1.146,1.006-1.146c0.596,0,1,0.535,1.006,1.136v6.032
			c0,0.58-0.451,1.052-1.006,1.052c-0.553,0-1.006-0.472-1.006-1.052V53.689z"/>
		<path fill="#FFFFFF" d="M186.027,54.395v5.439c0,0.514-0.405,0.93-0.896,0.93c-0.491,0-0.896-0.418-0.896-0.932l-0.002-0.684
			V53.48c0-0.515,0.398-0.933,0.891-0.933h3.682c0.676,0,1.332,0.179,1.826,0.688c0.492,0.513,0.662,1.195,0.662,1.908v3.008
			c0,0.709-0.172,1.392-0.662,1.906c-0.494,0.519-1.146,0.699-1.826,0.699h-1.217c-0.475,0.004-0.851-0.434-0.851-0.926
			c0-0.496,0.384-0.928,0.862-0.928h1.045c0.227-0.002,0.476-0.047,0.643-0.221c0.168-0.175,0.212-0.427,0.212-0.662v-2.736
			c0-0.24-0.047-0.496-0.216-0.674c-0.168-0.172-0.41-0.219-0.639-0.219h-2.619V54.395z"/>
		<path fill="#FFFFFF" d="M172.264,54.48l-0.002,5.455c0.006,0.549-0.414,0.991-0.941,0.991c-0.519,0-0.94-0.438-0.94-0.985V54.48
			c-0.514,0-1.032,0-1.549,0c-0.513,0-0.924-0.433-0.924-0.965c0-0.537,0.411-0.972,0.924-0.972h4.974
			c0.51,0,0.924,0.435,0.924,0.972c0,0.532-0.414,0.965-0.924,0.965C173.29,54.48,172.775,54.48,172.264,54.48"/>
		<path fill="#FFFFFF" d="M181.993,52.547c0.553,0,1.001,0.471,1.001,1.047l0.001,4.525c0,0.758-0.169,1.506-0.694,2.057
			c-0.523,0.551-1.232,0.73-1.953,0.73h-2.175c-0.725,0-1.438-0.18-1.964-0.732c-0.527-0.551-0.702-1.293-0.702-2.055v-4.525
			c0-0.576,0.447-1.047,1.002-1.047c0.554,0,0.999,0.471,0.999,1.047v4.238c0,0.275,0.065,0.545,0.256,0.746
			c0.191,0.199,0.45,0.268,0.713,0.268h1.551c0.265,0,0.521-0.068,0.713-0.268c0.191-0.201,0.254-0.471,0.254-0.746v-4.238
			C180.991,53.018,181.439,52.547,181.993,52.547"/>
	</g>
	<g id="Diente_2_">
		<path fill="#FFFFFF" d="M24.782,54.592c-5.278-9.988,0.598-15.225-0.895-24.038c-0.546-3.221-3.063-8.114-1.925-11.567
			c1.774-5.383,7.013,0.317,9.665-1.641c-3.847-0.11-7.531-6.114-11.962-3.346c-4.29,2.682-2.33,8.494-0.619,12.763
			c2.322,5.791,2.979,7.012,2.201,14.698c-0.27,2.645-0.603,5.418,0.004,7.975C21.731,51.473,23.305,53.967,24.782,54.592"/>
		<path fill="#FFFFFF" d="M32.042,36.447c-2.206,0.363-5.647,13.848-5.403,16.129c0.923-2.607,3.444-12.316,5.675-13.314
			c2.518,1.125,4.146,18.104,6.309,17.748c1.547-0.258,2.504-7.08,2.567-11.922c-0.649,3.576-1.052,7.84-2.521,8.496
			C36.924,53.338,34.333,36.068,32.042,36.447"/>
		<path fill="#FFFFFF" d="M28.688,19.297c1.162,1.798,3.627,1.607,5.916,0.879c2.646-0.841,10.391-4.654,11.33,0.228
			c0.423,2.194-1.233,4.073-1.018,6.231c0.865-2.456,2.178-4.2,2.924-6.764c0.912-3.143-1.464-4.789-4.592-4.664
			C37.873,15.425,34.01,21.404,28.688,19.297"/>
	</g>
</g>
</svg>
