<?xml version="1.0" encoding="utf-8"?>
<!-- Generator: Adobe Illustrator 16.0.0, SVG Export Plug-In . SVG Version: 6.00 Build 0)  -->
<!DOCTYPE svg PUBLIC "-//W3C//DTD SVG 1.1//EN" "http://www.w3.org/Graphics/SVG/1.1/DTD/svg11.dtd">
<svg version="1.1" id="Logo_1_" xmlns="http://www.w3.org/2000/svg" xmlns:xlink="http://www.w3.org/1999/xlink" x="0px" y="0px"
	 width="210px" height="65px" viewBox="0 0 210 65" enable-background="new 0 0 210 65" xml:space="preserve">
<g id="Logo_2_">
	<g id="Letras_1_">
		<path fill-rule="evenodd" clip-rule="evenodd" fill="#FFFFFF" d="M193.982,43.046l-2.676-7.966
			c-0.029-0.096-0.075-0.214-0.145-0.279c-0.064-0.06-0.14-0.081-0.223-0.081c-0.08,0-0.146,0.017-0.212,0.081
			c-0.065,0.061-0.11,0.19-0.134,0.276l-0.004,0.011l-2.691,8.021c-0.172,0.624-0.718,1.053-1.338,1.053
			c-0.77,0-1.393-0.653-1.393-1.457c0-0.193,0.037-0.383,0.108-0.561l2.698-7.894c0.215-0.679,0.551-1.364,1.102-1.812
			c0.531-0.431,1.202-0.572,1.863-0.572c0.68,0,1.345,0.157,1.893,0.6c0.547,0.446,0.872,1.09,1.064,1.774l2.734,7.965
			c0.059,0.161,0.086,0.334,0.086,0.506c0,0.801-0.619,1.451-1.385,1.451C194.689,44.162,194.132,43.699,193.982,43.046"/>
		<path fill-rule="evenodd" clip-rule="evenodd" fill="#FFFFFF" d="M205.635,41.304c0.756,0,1.366,0.641,1.366,1.43
			c0,0.787-0.612,1.426-1.366,1.426h-2.799c-1.001,0-2.227-0.158-2.97-0.932c-0.743-0.777-0.897-2.053-0.897-3.104
			c0-2.266-0.002-4.531-0.002-6.795c0-0.799,0.617-1.445,1.382-1.445c0.763,0,1.382,0.646,1.382,1.445
			c0,2.215,0.002,4.43,0.002,6.646c0,0.323,0.033,0.812,0.267,1.051c0.238,0.243,0.706,0.281,1.021,0.281
			C203.891,41.307,204.762,41.304,205.635,41.304"/>
		<path fill-rule="evenodd" clip-rule="evenodd" fill="#FFFFFF" d="M157.35,42.792c0,0.633-0.49,1.146-1.095,1.146h-5.691
			c-1.068,0-2.573-0.137-3.439-0.877c-0.796-0.68-0.976-1.834-0.976-2.85v-4.43c0-1.012,0.186-2.155,0.976-2.834
			c0.866-0.743,2.367-0.87,3.439-0.87h5.691c0.604-0.002,1.095,0.512,1.095,1.145c0,0.632-0.49,1.146-1.095,1.146h-5.526
			c-0.391,0-0.949,0.024-1.271,0.289c-0.326,0.27-0.397,0.739-0.397,1.15V36.8h7.195c0.604,0,1.095,0.5,1.095,1.133
			c0,0.649-0.512,1.164-1.131,1.145h-7.159v1.109c0,0.408,0.065,0.897,0.394,1.167c0.318,0.261,0.887,0.288,1.275,0.288h5.49
			C156.838,41.629,157.35,42.144,157.35,42.792"/>
		<path fill-rule="evenodd" clip-rule="evenodd" fill="#FFFFFF" d="M132.364,30.86l0.002,11.645c0,0.896-0.706,1.614-1.56,1.614
			c-0.855,0-1.555-0.724-1.557-1.617l-0.001-1.425V29.286c0-0.891,0.69-1.613,1.542-1.613h7.656c1.328,0,2.619,0.335,3.584,1.339
			c0.969,1.002,1.291,2.351,1.291,3.738v6.259c0,1.393-0.328,2.734-1.291,3.745c-0.965,1.014-2.248,1.355-3.584,1.355l-2.773,0.006
			c-0.82,0-1.463-0.766-1.463-1.604c0-0.856,0.66-1.61,1.49-1.61l2.42-0.002c0.559,0,1.141-0.125,1.553-0.551
			c0.411-0.424,0.533-1.023,0.533-1.607v-5.696c0-0.591-0.125-1.198-0.539-1.627c-0.414-0.428-0.985-0.557-1.547-0.557H132.364z"/>
		<path fill-rule="evenodd" clip-rule="evenodd" fill="#FFFFFF" d="M172.73,40.921c0,0.896-0.225,1.745-0.855,2.379
			c-0.643,0.646-1.504,0.855-2.371,0.855c-0.759,0-1.553-0.152-2.149-0.675c-0.631-0.554-0.952-1.486-1.202-2.282l-1.792-5.681
			c-0.056-0.182-0.149-0.514-0.274-0.653c-0.096-0.104-0.229-0.137-0.362-0.137c-0.146,0-0.298,0.032-0.398,0.152
			c-0.109,0.136-0.134,0.342-0.134,0.512c0,2.44,0,4.88,0,7.32c0,0.797-0.619,1.443-1.382,1.443s-1.383-0.646-1.383-1.443v-7.629
			c0-0.891,0.228-1.733,0.858-2.361c0.643-0.64,1.505-0.849,2.369-0.849c0.76,0,1.552,0.156,2.148,0.678
			c0.631,0.552,0.953,1.485,1.204,2.281l1.791,5.672c0.058,0.181,0.15,0.524,0.277,0.663c0.094,0.104,0.227,0.136,0.362,0.136
			c0.148,0,0.293-0.037,0.393-0.162c0.111-0.139,0.139-0.344,0.139-0.519c0-2.445-0.002-4.889-0.002-7.333
			c0-0.798,0.619-1.444,1.381-1.444c0.764,0,1.381,0.646,1.381,1.444C172.729,35.833,172.73,38.378,172.73,40.921"/>
		<path fill-rule="evenodd" clip-rule="evenodd" fill="#FFFFFF" d="M53.393,32.081c-0.811-0.012-1.475,0.671-1.475,1.521v8.815
			c0,0.833,0.646,1.51,1.445,1.51c0.797,0,1.443-0.677,1.443-1.51v-2.57h4.951c1.012,0,2.25-0.135,3.104-0.754
			c0.691-0.502,0.97-1.207,0.97-2.073v-2.13c0-0.864-0.277-1.566-0.968-2.065c-0.856-0.616-2.097-0.745-3.106-0.745H53.393z
			 M54.807,34.414h4.609c0.34,0,0.799,0.023,1.092,0.223c0.303,0.204,0.412,0.55,0.412,0.913v0.826c0,0.359-0.109,0.707-0.41,0.9
			c-0.289,0.189-0.759,0.211-1.094,0.211h-4.609V34.414z"/>
		<path fill-rule="evenodd" clip-rule="evenodd" fill="#FFFFFF" d="M122.68,42.792c0,0.633-0.492,1.146-1.095,1.146h-5.691
			c-1.07,0-2.575-0.137-3.44-0.877c-0.795-0.68-0.975-1.834-0.975-2.85v-4.43c0-1.012,0.186-2.155,0.975-2.834
			c0.867-0.743,2.369-0.87,3.44-0.87h5.691c0.603-0.002,1.095,0.512,1.095,1.145c0,0.632-0.492,1.146-1.095,1.146h-5.526
			c-0.392,0-0.951,0.024-1.271,0.289c-0.328,0.27-0.396,0.739-0.396,1.15V36.8h7.194c0.603,0,1.095,0.5,1.095,1.133
			c0,0.649-0.512,1.164-1.133,1.145h-7.156v1.109c0,0.408,0.065,0.897,0.393,1.167c0.318,0.261,0.887,0.288,1.275,0.288h5.488
			C122.168,41.629,122.68,42.144,122.68,42.792"/>
		<path fill-rule="evenodd" clip-rule="evenodd" fill="#FFFFFF" d="M99.182,42.416c0.002,0.835-0.648,1.511-1.443,1.511
			c-0.794,0-1.434-0.663-1.445-1.487l-0.012-8.873c0.014-0.844,0.688-1.517,1.496-1.486l6.275-0.002c1.044,0,2.43,0.109,3.345,0.69
			c0.69,0.439,0.988,1.08,0.988,1.92v1.402c0,0.43-0.067,0.936-0.345,1.275c-0.284,0.354-0.773,0.527-1.189,0.62l-1.555,0.347
			l1.537,0.42c0.271,0.073,0.557,0.197,0.756,0.412c0.221,0.236,0.381,0.73,0.469,1.043c0.135,0.566,0.474,1.665,0.474,2.207
			c0,0.835-0.647,1.511-1.444,1.511c-0.734,0-1.342-0.573-1.433-1.318l-0.429-1.677c-0.083-0.393-0.242-0.775-0.521-1.067
			c-0.273-0.283-0.609-0.435-0.996-0.435h-1.26c-0.639,0.105-1.221-0.407-1.221-1.087c0-0.609,0.471-1.103,1.054-1.103
			c0.581,0,1.162,0.002,1.743,0.002c0.325,0,0.721-0.029,1.006-0.203c0.293-0.172,0.441-0.473,0.441-0.826V35.48
			c0-0.359-0.145-0.662-0.441-0.847c-0.289-0.183-0.676-0.219-1.006-0.219h-4.859L99.182,42.416z"/>
		<path fill-rule="evenodd" clip-rule="evenodd" fill="#FFFFFF" d="M93.164,42.792c0,0.633-0.491,1.146-1.095,1.146h-5.69
			c-1.068,0-2.574-0.137-3.439-0.877c-0.797-0.68-0.977-1.834-0.977-2.85v-4.43c0-1.012,0.186-2.155,0.977-2.834
			c0.865-0.743,2.368-0.87,3.439-0.87h5.69c0.604-0.002,1.095,0.512,1.095,1.145c0,0.632-0.491,1.146-1.095,1.146h-5.524
			c-0.393,0-0.953,0.024-1.271,0.289c-0.328,0.27-0.398,0.739-0.398,1.15V36.8h7.194c0.604,0,1.095,0.5,1.095,1.133
			c0,0.649-0.512,1.164-1.131,1.145h-7.158v1.109c0,0.408,0.064,0.897,0.393,1.167c0.319,0.261,0.888,0.288,1.277,0.288h5.488
			C92.652,41.629,93.164,42.144,93.164,42.792"/>
		<path fill-rule="evenodd" clip-rule="evenodd" fill="#FFFFFF" d="M69.226,42.416c0,0.835-0.647,1.511-1.444,1.511
			c-0.798,0-1.444-0.676-1.444-1.511v-8.771c-0.028-0.857,0.626-1.566,1.444-1.566c0.797,0,1.444,0.676,1.444,1.51v2.99h6.812
			v-2.936c-0.026-0.856,0.626-1.564,1.443-1.564c0.798,0,1.445,0.676,1.445,1.51v8.828c0,0.835-0.647,1.511-1.445,1.511
			c-0.797,0-1.443-0.676-1.443-1.511v-3.504h-6.812V42.416z"/>
		<path fill-rule="evenodd" clip-rule="evenodd" fill="#FFFFFF" d="M48.74,29.264c0-0.803-0.637-1.428-1.406-1.412L40.76,27.85
			c-1.303-0.001-2.598,0.304-3.58,1.253c-0.941,0.911-1.289,2.113-1.289,3.43c0,1.313,0.35,2.512,1.289,3.424
			c0.98,0.949,2.277,1.258,3.58,1.258h3.604c0.572,0,1.207,0.094,1.674,0.461c0.455,0.359,0.63,0.89,0.63,1.47
			c0,0.577-0.179,1.1-0.628,1.458c-0.469,0.377-1.101,0.473-1.676,0.473h-6.727l-0.006-0.001c-0.775-0.03-1.42,0.61-1.42,1.425
			c0,0.803,0.623,1.434,1.391,1.425h6.682c1.369,0,2.78-0.29,3.83-1.271c0.986-0.922,1.346-2.156,1.346-3.509
			s-0.359-2.589-1.346-3.511c-1.05-0.98-2.461-1.269-3.83-1.269h-3.588c-0.518,0-1.073-0.099-1.483-0.456
			c-0.399-0.35-0.55-0.849-0.55-1.378c0-0.536,0.146-1.041,0.548-1.397c0.409-0.361,0.974-0.465,1.485-0.45h6.695
			c0.297,0,0.811-0.411,1.003-0.63C48.58,29.839,48.74,29.563,48.74,29.264"/>
		<path fill-rule="evenodd" clip-rule="evenodd" fill="#FFFFFF" d="M181.324,34.701l-0.002,8.004
			c0.008,0.808-0.607,1.457-1.379,1.457c-0.764,0-1.383-0.648-1.383-1.445v-8.016c-0.758,0-1.518,0-2.275,0
			c-0.748,0-1.357-0.634-1.357-1.418c0-0.785,0.609-1.419,1.357-1.419c2.434,0,4.865,0,7.3,0c0.748,0,1.356,0.634,1.356,1.419
			c0,0.784-0.608,1.418-1.356,1.418C182.83,34.701,182.078,34.701,181.324,34.701"/>
		<path fill-rule="evenodd" clip-rule="evenodd" fill="#FFFFFF" d="M167.677,57.787c0-0.913-0.245-1.742-0.907-2.362
			c-0.703-0.658-1.648-0.854-2.565-0.854h-2.364c-0.327,0-0.678-0.061-0.937-0.285c-0.247-0.217-0.339-0.527-0.339-0.856
			c0-0.332,0.09-0.648,0.339-0.869c0.257-0.227,0.614-0.289,0.937-0.281h4.41c0.218,0,0.569-0.275,0.71-0.437
			c0.136-0.155,0.244-0.352,0.244-0.566c0-0.566-0.449-1.009-0.991-0.997l-4.33-0.001c-0.875,0-1.744,0.206-2.4,0.843
			c-0.635,0.613-0.87,1.424-0.87,2.309s0.237,1.691,0.87,2.307c0.656,0.637,1.525,0.846,2.4,0.846h2.374
			c0.362,0,0.769,0.057,1.063,0.291c0.283,0.223,0.389,0.553,0.389,0.914c0,0.359-0.107,0.683-0.389,0.906
			c-0.295,0.238-0.7,0.297-1.063,0.297h-4.433c-0.549-0.02-1.003,0.433-1.003,1.006c0,0.566,0.44,1.012,0.981,1.006h4.401
			c0.917,0,1.862-0.195,2.565-0.853C167.434,59.529,167.677,58.699,167.677,57.787"/>
		<path fill-rule="evenodd" clip-rule="evenodd" fill="#FFFFFF" d="M197.792,55.784v2.263c0,0.258,0.056,0.514,0.233,0.699
			c0.182,0.189,0.422,0.248,0.671,0.248h1.653c0.25,0,0.49-0.059,0.671-0.248c0.179-0.186,0.235-0.441,0.235-0.699v-2.263
			c0-0.257-0.057-0.511-0.235-0.698c-0.181-0.19-0.421-0.25-0.671-0.25h-1.653c-0.249,0-0.489,0.06-0.671,0.25
			C197.848,55.273,197.792,55.527,197.792,55.784 M198.392,52.804h2.264c0.704,0,1.392,0.177,1.903,0.712
			c0.512,0.536,0.682,1.255,0.682,1.991v2.818c0,0.734-0.17,1.453-0.682,1.989s-1.199,0.71-1.903,0.71h-2.264
			c-0.705,0-1.394-0.174-1.903-0.71c-0.513-0.536-0.68-1.255-0.68-1.989v-2.818c0-0.736,0.167-1.455,0.68-1.991
			C196.998,52.981,197.687,52.804,198.392,52.804"/>
		<path fill-rule="evenodd" clip-rule="evenodd" fill="#FFFFFF" d="M192.635,53.941c-0.047-0.608,0.419-1.144,1.006-1.144
			c0.596,0,0.999,0.535,1.006,1.135v6.032c0,0.58-0.451,1.051-1.006,1.051c-0.553,0-1.006-0.471-1.006-1.051V53.941z"/>
		<path fill-rule="evenodd" clip-rule="evenodd" fill="#FFFFFF" d="M186.027,54.646v5.439c0,0.515-0.406,0.931-0.896,0.931
			c-0.492,0-0.896-0.418-0.896-0.933l-0.002-0.684v-5.668c0-0.514,0.399-0.931,0.891-0.931h3.681c0.677,0,1.333,0.177,1.827,0.688
			c0.492,0.513,0.662,1.195,0.662,1.908v3.008c0,0.71-0.172,1.392-0.662,1.907c-0.494,0.518-1.146,0.698-1.827,0.698h-1.216
			c-0.475,0.004-0.851-0.434-0.851-0.925c0-0.497,0.384-0.929,0.863-0.929h1.044c0.227-0.001,0.476-0.047,0.643-0.221
			c0.168-0.173,0.212-0.425,0.212-0.662v-2.736c0-0.24-0.047-0.496-0.216-0.674c-0.168-0.172-0.41-0.219-0.639-0.219H186.027z"/>
		<path fill-rule="evenodd" clip-rule="evenodd" fill="#FFFFFF" d="M172.263,54.732l-0.002,5.455
			c0.006,0.549-0.413,0.992-0.94,0.992c-0.519,0-0.941-0.439-0.941-0.986v-5.461c-0.514,0-1.032,0-1.549,0
			c-0.512,0-0.924-0.432-0.924-0.965c0-0.537,0.412-0.97,0.924-0.97h4.973c0.511,0,0.924,0.433,0.924,0.97
			c0,0.533-0.413,0.965-0.924,0.965C173.289,54.732,172.775,54.732,172.263,54.732"/>
		<path fill-rule="evenodd" clip-rule="evenodd" fill="#FFFFFF" d="M181.992,52.799c0.553,0,1.001,0.47,1.001,1.046l0.001,4.526
			c0,0.757-0.169,1.505-0.694,2.057c-0.524,0.55-1.232,0.729-1.954,0.729h-2.174c-0.725,0-1.438-0.18-1.964-0.732
			c-0.528-0.551-0.702-1.293-0.702-2.054v-4.526c0-0.576,0.447-1.046,1.002-1.046c0.553,0,0.999,0.47,0.999,1.046v4.238
			c0,0.276,0.065,0.545,0.256,0.746c0.191,0.199,0.45,0.268,0.713,0.268h1.55c0.265,0,0.521-0.068,0.713-0.268
			c0.191-0.201,0.254-0.47,0.254-0.746v-4.238C180.99,53.269,181.439,52.799,181.992,52.799"/>
	</g>
	<g id="Diente_1_">
		<path fill-rule="evenodd" clip-rule="evenodd" fill="#FFFFFF" d="M24.781,54.843c-5.278-9.988,0.598-15.225-0.895-24.038
			c-0.546-3.221-3.063-8.114-1.925-11.568c1.774-5.382,7.013,0.318,9.665-1.64c-3.848-0.11-7.531-6.114-11.963-3.347
			c-4.29,2.682-2.33,8.494-0.619,12.763c2.322,5.791,2.979,7.013,2.201,14.698c-0.27,2.645-0.603,5.418,0.004,7.975
			C21.73,51.724,23.305,54.218,24.781,54.843"/>
		<path fill-rule="evenodd" clip-rule="evenodd" fill="#FFFFFF" d="M32.041,36.699c-2.206,0.363-5.647,13.848-5.403,16.129
			c0.923-2.606,3.444-12.316,5.675-13.314c2.518,1.125,4.146,18.104,6.309,17.748c1.547-0.258,2.504-7.08,2.567-11.922
			c-0.649,3.577-1.052,7.84-2.521,8.496C36.924,53.59,34.332,36.321,32.041,36.699"/>
		<path fill-rule="evenodd" clip-rule="evenodd" fill="#FFFFFF" d="M28.688,19.548c1.162,1.798,3.627,1.607,5.916,0.879
			c2.646-0.841,10.391-4.654,11.33,0.228c0.423,2.195-1.233,4.073-1.018,6.231c0.865-2.456,2.178-4.2,2.924-6.763
			c0.912-3.143-1.464-4.79-4.592-4.664C37.872,15.677,34.01,21.657,28.688,19.548"/>
	</g>
</g>
<g id="Esfera_1_">
	<linearGradient id="SVGID_1_" gradientUnits="userSpaceOnUse" x1="30.3184" y1="16.6997" x2="62.0332" y2="16.6997">
		<stop  offset="0.6252" style="stop-color:#FFD240"/>
		<stop  offset="1" style="stop-color:#F5871F"/>
	</linearGradient>
	<path fill="url(#SVGID_1_)" d="M30.318,2.712c2.209-0.209,4.439-0.15,6.629,0.213c0.731,0.123,1.451,0.28,2.165,0.475
		c0.952,0.258,1.896,0.564,2.823,0.926c3.717,1.44,7.203,3.708,10.209,6.808c5.172,5.337,8.022,12.737,8.52,19.766h1.369v-0.008
		c-0.585-7.003-3.473-14.357-8.631-19.679c-3.963-4.087-8.751-6.753-13.796-8.002c-1.007-0.249-2.029-0.439-3.06-0.559
		C35.611,2.55,34.668,2.5,33.729,2.5C32.592,2.5,31.451,2.572,30.318,2.712"/>
	<linearGradient id="SVGID_2_" gradientUnits="userSpaceOnUse" x1="53.4922" y1="30.3159" x2="2.998" y2="30.3159">
		<stop  offset="0" style="stop-color:#FFD240"/>
		<stop  offset="1" style="stop-color:#F5871F"/>
	</linearGradient>
	<path fill="url(#SVGID_2_)" d="M17.162,6.205C3.305,14.962-1.146,33.815,7.223,48.312c2.594,4.492,6.113,8.039,10.146,10.536
		c-3.66-2.448-6.85-5.788-9.248-9.942C-0.214,34.466,4.217,15.69,18.02,6.97c7.725-4.882,16.742-5.579,24.652-2.716
		c0.988,0.357,1.961,0.771,2.912,1.241c2.926,1.451,5.588,3.443,7.908,5.808c-2.305-2.532-5.008-4.664-7.994-6.242
		c-0.967-0.51-1.957-0.96-2.968-1.352c-3.271-1.266-6.743-1.924-10.242-1.924C27.127,1.784,21.9,3.21,17.162,6.205"/>
	<linearGradient id="SVGID_3_" gradientUnits="userSpaceOnUse" x1="59.792" y1="54.4136" x2="9.4336" y2="54.4136">
		<stop  offset="0.004" style="stop-color:#F5871F"/>
		<stop  offset="0.1724" style="stop-color:#FFD240"/>
		<stop  offset="1" style="stop-color:#F5871F"/>
	</linearGradient>
	<path fill="url(#SVGID_3_)" d="M58.154,45.107c-1.365,3.145-3.275,6.094-5.728,8.695c-11.183,11.867-29.442,12.001-40.782,0.301
		c-0.793-0.816-1.53-1.671-2.211-2.555c0.844,1.165,1.776,2.282,2.802,3.34c11.529,11.893,30.089,11.758,41.457-0.304
		c2.672-2.835,4.7-6.051,6.1-9.473l-1.365-0.005H58.154z"/>
	<linearGradient id="SVGID_4_" gradientUnits="userSpaceOnUse" x1="56.2568" y1="18.604" x2="4.4951" y2="18.604">
		<stop  offset="0" style="stop-color:#FFD240"/>
		<stop  offset="1" style="stop-color:#F5871F"/>
	</linearGradient>
	<path fill="url(#SVGID_4_)" d="M32.312,4.008c-7.467,0.045-15.09,3.409-20.122,9.229c-3.905,4.481-6.438,10.207-7.347,16.184
		c-0.2,1.24-0.358,2.521-0.348,3.781c0.712-6.08,5.869-16.048,10.572-19.74C20.127,9.495,27.279,7.694,33.43,8.05
		c8.475,0.466,19.586,8.454,21.949,18.55c0.627-2.337,0.783-4.124,0.878-7.348C52.209,9.503,40.386,4.006,32.564,4.006
		C32.479,4.006,32.396,4.007,32.312,4.008"/>
	<linearGradient id="SVGID_5_" gradientUnits="userSpaceOnUse" x1="7.0254" y1="50.103" x2="57.1855" y2="50.103">
		<stop  offset="0" style="stop-color:#FFD240"/>
		<stop  offset="1" style="stop-color:#F5871F"/>
	</linearGradient>
	<path fill="url(#SVGID_5_)" d="M7.047,42.71c-0.075,0.424,0.057,0.843,0.203,1.234c3.637,9.525,12.221,16.459,21.921,17.859
		c11.716,1.754,23.095-5.057,28.015-16.532c-4.976,9.966-16.168,16.362-26.52,14.239c-10.227-2.097-19.6-10.299-21.363-21.383
		C7.791,39.593,7.411,40.6,7.047,42.71"/>
</g>
</svg>
