<?xml version="1.0" encoding="utf-8"?>
<!-- Generator: Adobe Illustrator 16.0.0, SVG Export Plug-In . SVG Version: 6.00 Build 0)  -->
<!DOCTYPE svg PUBLIC "-//W3C//DTD SVG 1.1//EN" "http://www.w3.org/Graphics/SVG/1.1/DTD/svg11.dtd">
<svg version="1.1" id="Logo_1_" xmlns="http://www.w3.org/2000/svg" xmlns:xlink="http://www.w3.org/1999/xlink" x="0px" y="0px"
	 width="210px" height="65px" viewBox="0 0 210 65" enable-background="new 0 0 210 65" xml:space="preserve">
<g id="Logo">
	<g id="Letras">
		<path fill-rule="evenodd" clip-rule="evenodd" fill="#4c0c71" d="M192.486,42.595l-2.676-7.965
			c-0.029-0.096-0.075-0.214-0.145-0.279c-0.065-0.059-0.14-0.082-0.223-0.082c-0.08,0-0.146,0.017-0.211,0.082
			c-0.066,0.061-0.11,0.19-0.133,0.276l-0.004,0.011l-2.692,8.021c-0.172,0.624-0.718,1.052-1.338,1.052
			c-0.769,0-1.392-0.653-1.392-1.457c0-0.194,0.038-0.383,0.108-0.561l2.699-7.894c0.214-0.679,0.55-1.364,1.101-1.812
			c0.532-0.431,1.203-0.572,1.863-0.572c0.68,0,1.345,0.157,1.893,0.6c0.547,0.446,0.873,1.09,1.064,1.774l2.735,7.965
			c0.058,0.161,0.086,0.333,0.086,0.505c0,0.8-0.62,1.451-1.385,1.451C193.194,43.711,192.636,43.249,192.486,42.595"/>
		<path fill-rule="evenodd" clip-rule="evenodd" fill="#4c0c71" d="M204.139,40.854c0.755,0,1.366,0.64,1.366,1.429
			c0,0.788-0.612,1.427-1.366,1.427h-2.798c-1.001,0-2.227-0.159-2.97-0.932c-0.743-0.778-0.897-2.053-0.897-3.103
			c0-2.267-0.001-4.532-0.001-6.796c0-0.799,0.617-1.445,1.381-1.445c0.762,0,1.382,0.646,1.382,1.445
			c0,2.215,0.001,4.43,0.001,6.646c0,0.324,0.034,0.811,0.267,1.051c0.238,0.243,0.706,0.281,1.021,0.281
			C202.394,40.856,203.266,40.854,204.139,40.854"/>
		<path fill-rule="evenodd" clip-rule="evenodd" fill="#4c0c71" d="M155.854,42.342c0,0.633-0.49,1.147-1.095,1.147h-5.691
			c-1.068,0-2.574-0.137-3.439-0.878c-0.795-0.68-0.976-1.834-0.976-2.849v-4.43c0-1.012,0.186-2.156,0.976-2.834
			c0.866-0.743,2.367-0.87,3.439-0.87h5.691c0.604-0.002,1.095,0.512,1.095,1.145c0,0.632-0.49,1.146-1.095,1.146h-5.526
			c-0.391,0-0.95,0.024-1.271,0.289c-0.326,0.27-0.398,0.739-0.398,1.151v0.992h7.195c0.604,0,1.095,0.5,1.095,1.133
			c0,0.649-0.512,1.164-1.131,1.145h-7.159v1.109c0,0.408,0.066,0.897,0.394,1.167c0.319,0.261,0.887,0.289,1.275,0.289h5.49
			C155.341,41.179,155.854,41.693,155.854,42.342"/>
		<path fill-rule="evenodd" clip-rule="evenodd" fill="#4c0c71" d="M130.868,30.409l0.002,11.645c0,0.896-0.707,1.615-1.559,1.615
			c-0.856,0-1.556-0.724-1.557-1.618l-0.001-1.424V28.835c0-0.891,0.69-1.613,1.542-1.613h7.656c1.328,0,2.62,0.335,3.584,1.339
			c0.969,1.002,1.291,2.351,1.291,3.738v6.259c0,1.393-0.328,2.734-1.291,3.745c-0.964,1.014-2.249,1.355-3.583,1.356l-2.774,0.006
			c-0.819,0-1.462-0.766-1.462-1.605c0-0.857,0.661-1.61,1.491-1.61l2.419-0.001c0.56,0,1.141-0.125,1.554-0.551
			c0.411-0.424,0.533-1.023,0.533-1.607v-5.696c0-0.591-0.125-1.198-0.54-1.627c-0.413-0.428-0.985-0.557-1.547-0.557H130.868z"/>
		<path fill-rule="evenodd" clip-rule="evenodd" fill="#4c0c71" d="M171.234,40.471c0,0.896-0.225,1.745-0.855,2.379
			c-0.643,0.646-1.504,0.856-2.371,0.856c-0.759,0-1.552-0.153-2.149-0.675c-0.631-0.553-0.952-1.486-1.202-2.282l-1.792-5.681
			c-0.056-0.182-0.149-0.514-0.275-0.654c-0.095-0.104-0.229-0.136-0.362-0.136c-0.146,0-0.298,0.032-0.398,0.153
			c-0.109,0.135-0.134,0.342-0.134,0.511c0,2.44,0,4.88,0,7.32c0,0.798-0.619,1.444-1.382,1.444s-1.383-0.646-1.383-1.444v-7.629
			c0-0.89,0.227-1.733,0.858-2.361c0.643-0.64,1.505-0.849,2.37-0.849c0.759,0,1.551,0.156,2.148,0.678
			c0.631,0.552,0.953,1.485,1.204,2.281l1.791,5.672c0.058,0.181,0.15,0.524,0.277,0.663c0.094,0.104,0.227,0.136,0.362,0.136
			c0.148,0,0.293-0.037,0.393-0.162c0.112-0.139,0.139-0.344,0.139-0.519c0-2.444-0.001-4.888-0.001-7.333
			c0-0.798,0.619-1.444,1.381-1.444c0.763,0,1.381,0.646,1.381,1.444C171.233,35.383,171.234,37.928,171.234,40.471"/>
		<path fill-rule="evenodd" clip-rule="evenodd" fill="#4c0c71" d="M51.897,31.63c-0.811-0.012-1.476,0.671-1.476,1.521v8.815
			c0,0.833,0.647,1.511,1.445,1.511c0.797,0,1.443-0.677,1.444-1.511v-2.57h4.951c1.012,0,2.25-0.134,3.104-0.754
			c0.691-0.501,0.97-1.208,0.97-2.073v-2.13c0-0.864-0.277-1.566-0.968-2.065c-0.856-0.616-2.097-0.745-3.106-0.745H51.897z
			 M53.311,33.963h4.609c0.34,0,0.799,0.023,1.092,0.223c0.303,0.204,0.412,0.55,0.412,0.913v0.827c0,0.359-0.109,0.707-0.411,0.9
			c-0.29,0.19-0.759,0.21-1.094,0.21h-4.609V33.963z"/>
		<path fill-rule="evenodd" clip-rule="evenodd" fill="#4c0c71" d="M121.183,42.342c0,0.633-0.491,1.147-1.094,1.147h-5.691
			c-1.07,0-2.575-0.137-3.44-0.878c-0.794-0.68-0.975-1.834-0.975-2.849v-4.43c0-1.012,0.186-2.156,0.975-2.834
			c0.867-0.743,2.369-0.87,3.44-0.87h5.691c0.603-0.002,1.094,0.512,1.094,1.145c0,0.632-0.491,1.146-1.094,1.146h-5.527
			c-0.391,0-0.951,0.024-1.271,0.289c-0.327,0.27-0.396,0.739-0.396,1.151v0.992h7.195c0.603,0,1.094,0.5,1.094,1.133
			c0,0.649-0.512,1.164-1.132,1.145h-7.157v1.109c0,0.408,0.066,0.897,0.393,1.167c0.319,0.261,0.887,0.289,1.275,0.289h5.489
			C120.671,41.179,121.183,41.693,121.183,42.342"/>
		<path fill-rule="evenodd" clip-rule="evenodd" fill="#4c0c71" d="M97.686,41.965c0.001,0.834-0.649,1.51-1.443,1.51
			c-0.794,0-1.434-0.663-1.445-1.488l-0.012-8.872c0.013-0.844,0.688-1.517,1.496-1.486l6.276-0.002c1.043,0,2.43,0.109,3.344,0.69
			c0.691,0.439,0.988,1.08,0.988,1.921v1.402c0,0.43-0.067,0.936-0.344,1.276c-0.285,0.353-0.773,0.527-1.19,0.62l-1.554,0.347
			l1.536,0.42c0.272,0.073,0.557,0.197,0.756,0.412c0.222,0.237,0.381,0.731,0.469,1.043c0.134,0.566,0.474,1.665,0.474,2.208
			c0,0.834-0.647,1.51-1.444,1.51c-0.734,0-1.342-0.573-1.433-1.318l-0.428-1.677c-0.083-0.393-0.242-0.775-0.522-1.067
			c-0.272-0.283-0.609-0.435-0.996-0.435h-1.26c-0.638,0.106-1.22-0.407-1.22-1.086c0-0.609,0.47-1.102,1.053-1.102
			c0.581,0,1.162,0.001,1.743,0.001c0.325,0,0.72-0.029,1.006-0.203c0.293-0.171,0.442-0.473,0.442-0.825v-0.733
			c0-0.359-0.145-0.661-0.442-0.846c-0.289-0.182-0.675-0.219-1.006-0.219h-4.86L97.686,41.965z"/>
		<path fill-rule="evenodd" clip-rule="evenodd" fill="#4c0c71" d="M91.668,42.342c0,0.633-0.491,1.147-1.095,1.147h-5.69
			c-1.069,0-2.575-0.137-3.44-0.878c-0.796-0.68-0.977-1.834-0.977-2.849v-4.43c0-1.012,0.187-2.156,0.977-2.834
			c0.866-0.743,2.368-0.87,3.44-0.87h5.69c0.604-0.002,1.095,0.512,1.095,1.145c0,0.632-0.491,1.146-1.095,1.146h-5.524
			c-0.394,0-0.953,0.024-1.272,0.289c-0.328,0.27-0.398,0.739-0.398,1.151v0.992h7.195c0.604,0,1.095,0.5,1.095,1.133
			c0,0.649-0.511,1.164-1.131,1.145h-7.159v1.109c0,0.408,0.064,0.897,0.394,1.167c0.319,0.261,0.887,0.289,1.277,0.289h5.488
			C91.157,41.179,91.668,41.693,91.668,42.342"/>
		<path fill-rule="evenodd" clip-rule="evenodd" fill="#4c0c71" d="M67.729,41.965c0,0.834-0.648,1.51-1.445,1.51
			c-0.797,0-1.444-0.676-1.444-1.51v-8.772c-0.028-0.857,0.626-1.566,1.444-1.566c0.797,0,1.445,0.676,1.445,1.51v2.991h6.811
			v-2.937c-0.026-0.856,0.626-1.564,1.444-1.564c0.797,0,1.445,0.676,1.445,1.51v8.829c0,0.834-0.647,1.51-1.445,1.51
			c-0.797,0-1.444-0.676-1.444-1.51v-3.504h-6.811V41.965z"/>
		<path fill-rule="evenodd" clip-rule="evenodd" fill="#4c0c71" d="M47.245,28.813c0-0.803-0.638-1.428-1.406-1.412l-6.574-0.002
			c-1.304-0.001-2.599,0.304-3.58,1.253c-0.942,0.911-1.289,2.113-1.289,3.43c0,1.313,0.349,2.512,1.289,3.425
			c0.98,0.949,2.276,1.257,3.58,1.257h3.604c0.572,0,1.206,0.094,1.674,0.462c0.455,0.359,0.629,0.889,0.629,1.469
			c0,0.577-0.178,1.1-0.627,1.458c-0.47,0.376-1.101,0.472-1.676,0.472h-6.727l-0.005,0c-0.775-0.031-1.42,0.61-1.42,1.425
			c0,0.803,0.623,1.434,1.391,1.425h6.681c1.369,0,2.781-0.29,3.83-1.27c0.987-0.922,1.346-2.156,1.346-3.509
			s-0.359-2.588-1.346-3.511c-1.049-0.98-2.461-1.269-3.83-1.269h-3.588c-0.518,0-1.073-0.099-1.483-0.456
			c-0.399-0.35-0.549-0.849-0.549-1.378c0-0.536,0.146-1.041,0.547-1.397c0.41-0.361,0.973-0.465,1.485-0.45h6.696
			c0.297,0,0.811-0.411,1.003-0.63C47.084,29.389,47.245,29.113,47.245,28.813"/>
		<path fill-rule="evenodd" clip-rule="evenodd" fill="#4c0c71" d="M179.828,34.25l-0.001,8.004c0.007,0.808-0.608,1.458-1.38,1.458
			c-0.763,0-1.382-0.648-1.382-1.445V34.25c-0.758,0-1.517,0.001-2.275,0.001c-0.749,0-1.357-0.635-1.357-1.418
			c0-0.785,0.608-1.419,1.357-1.419c2.434,0,4.866,0,7.3,0c0.748,0,1.356,0.634,1.356,1.419c0,0.784-0.608,1.418-1.356,1.418
			C181.334,34.25,180.582,34.25,179.828,34.25"/>
		<path fill-rule="evenodd" clip-rule="evenodd" fill="#4c0c71" d="M166.181,57.335c0-0.913-0.245-1.742-0.907-2.362
			c-0.704-0.658-1.649-0.854-2.566-0.854h-2.365c-0.327,0-0.678-0.061-0.936-0.285c-0.247-0.217-0.339-0.527-0.339-0.857
			c0-0.332,0.089-0.648,0.339-0.869c0.256-0.227,0.614-0.29,0.936-0.281h4.41c0.218,0,0.57-0.276,0.71-0.437
			c0.135-0.155,0.244-0.352,0.244-0.566c0-0.566-0.449-1.008-0.992-0.997l-4.33-0.001c-0.875,0-1.744,0.206-2.4,0.842
			c-0.635,0.614-0.87,1.424-0.87,2.309c0,0.885,0.237,1.691,0.87,2.307c0.656,0.637,1.526,0.846,2.4,0.846h2.375
			c0.362,0,0.769,0.057,1.064,0.291c0.283,0.223,0.388,0.554,0.388,0.914c0,0.359-0.107,0.683-0.388,0.907
			c-0.295,0.238-0.701,0.297-1.064,0.297h-4.433c-0.548-0.02-1.003,0.432-1.003,1.005c0,0.566,0.44,1.012,0.981,1.006h4.401
			c0.917,0,1.862-0.196,2.566-0.853C165.938,59.078,166.181,58.248,166.181,57.335"/>
		<path fill-rule="evenodd" clip-rule="evenodd" fill="#4c0c71" d="M196.296,55.333v2.263c0,0.258,0.055,0.513,0.234,0.7
			c0.181,0.188,0.421,0.248,0.67,0.248h1.653c0.25,0,0.49-0.059,0.671-0.248c0.178-0.187,0.236-0.442,0.236-0.7v-2.263
			c0-0.257-0.058-0.51-0.236-0.698c-0.181-0.19-0.42-0.25-0.671-0.25H197.2c-0.25,0-0.49,0.06-0.67,0.25
			C196.351,54.823,196.296,55.076,196.296,55.333 M196.896,52.354h2.264c0.704,0,1.392,0.176,1.903,0.711
			c0.512,0.536,0.681,1.255,0.681,1.991v2.818c0,0.735-0.169,1.454-0.681,1.99c-0.511,0.536-1.2,0.71-1.903,0.71h-2.264
			c-0.705,0-1.394-0.175-1.904-0.71c-0.512-0.536-0.68-1.255-0.68-1.99v-2.818c0-0.736,0.167-1.455,0.68-1.991
			C195.502,52.53,196.19,52.354,196.896,52.354"/>
		<path fill-rule="evenodd" clip-rule="evenodd" fill="#4c0c71" d="M191.139,53.49c-0.048-0.608,0.418-1.144,1.006-1.144
			c0.595,0,0.999,0.535,1.005,1.135v6.032c0,0.58-0.451,1.051-1.005,1.051s-1.006-0.471-1.006-1.051V53.49z"/>
		<path fill-rule="evenodd" clip-rule="evenodd" fill="#4c0c71" d="M184.532,54.195v5.439c0,0.515-0.407,0.931-0.897,0.931
			c-0.492,0-0.896-0.418-0.896-0.933l-0.001-0.683v-5.668c0-0.514,0.399-0.931,0.89-0.931h3.681c0.676,0,1.333,0.176,1.827,0.689
			c0.492,0.512,0.662,1.195,0.662,1.908v3.007c0,0.71-0.171,1.392-0.662,1.908c-0.494,0.518-1.146,0.698-1.827,0.698h-1.216
			c-0.475,0.004-0.851-0.434-0.851-0.924c0-0.498,0.384-0.929,0.863-0.929h1.044c0.227-0.001,0.476-0.046,0.642-0.221
			c0.168-0.173,0.212-0.425,0.212-0.663v-2.736c0-0.24-0.047-0.496-0.216-0.673c-0.168-0.173-0.409-0.22-0.638-0.22H184.532z"/>
		<path fill-rule="evenodd" clip-rule="evenodd" fill="#4c0c71" d="M170.767,54.281l-0.002,5.455
			c0.006,0.549-0.413,0.993-0.941,0.993c-0.518,0-0.94-0.44-0.94-0.986v-5.461c-0.515,0-1.033,0-1.55,0
			c-0.511,0-0.923-0.432-0.923-0.965c0-0.536,0.412-0.969,0.923-0.969h4.973c0.511,0,0.925,0.433,0.925,0.969
			c0,0.534-0.414,0.965-0.925,0.965C171.793,54.281,171.28,54.281,170.767,54.281"/>
		<path fill-rule="evenodd" clip-rule="evenodd" fill="#4c0c71" d="M180.496,52.349c0.553,0,1.001,0.469,1.001,1.046l0.001,4.526
			c0,0.757-0.169,1.505-0.694,2.057c-0.524,0.549-1.232,0.73-1.955,0.73h-2.174c-0.724,0-1.437-0.181-1.963-0.733
			c-0.528-0.55-0.702-1.292-0.702-2.053v-4.526c0-0.577,0.447-1.046,1.001-1.046c0.553,0,1,0.469,1,1.046v4.237
			c0,0.277,0.065,0.545,0.256,0.747c0.191,0.2,0.45,0.268,0.713,0.268h1.55c0.265,0,0.522-0.068,0.712-0.268
			c0.192-0.201,0.255-0.47,0.255-0.747l-0.001-4.237C179.494,52.818,179.943,52.349,180.496,52.349"/>
	</g>
	<g id="Diente">
		<path fill-rule="evenodd" clip-rule="evenodd" fill="#4c0c71" d="M23.285,54.393c-5.278-9.988,0.598-15.225-0.895-24.038
			c-0.545-3.221-3.063-8.114-1.924-11.568c1.774-5.382,7.012,0.318,9.665-1.64c-3.847-0.11-7.532-6.114-11.963-3.347
			c-4.29,2.682-2.33,8.494-0.619,12.763c2.322,5.791,2.978,7.013,2.201,14.698c-0.269,2.644-0.602,5.418,0.004,7.975
			C20.234,51.274,21.809,53.768,23.285,54.393"/>
		<path fill-rule="evenodd" clip-rule="evenodd" fill="#4c0c71" d="M30.545,36.248c-2.207,0.364-5.648,13.848-5.404,16.128
			c0.922-2.606,3.444-12.316,5.674-13.314c2.518,1.125,4.146,18.104,6.309,17.748c1.548-0.257,2.504-7.079,2.568-11.921
			c-0.65,3.577-1.051,7.84-2.521,8.496C35.427,53.14,32.836,35.87,30.545,36.248"/>
		<path fill-rule="evenodd" clip-rule="evenodd" fill="#4c0c71" d="M27.191,19.098c1.162,1.798,3.628,1.607,5.916,0.879
			c2.646-0.841,10.392-4.654,11.33,0.228c0.423,2.195-1.233,4.073-1.018,6.231c0.866-2.456,2.179-4.2,2.924-6.763
			c0.913-3.143-1.463-4.79-4.591-4.664C36.376,15.226,32.513,21.206,27.191,19.098"/>
	</g>
</g>
<g id="Esfera">
	<linearGradient id="SVGID_1_" gradientUnits="userSpaceOnUse" x1="28.8228" y1="16.249" x2="60.5366" y2="16.249">
		<stop  offset="0.6252" style="stop-color:#FFD240"/>
		<stop  offset="1" style="stop-color:#F5871F"/>
	</linearGradient>
	<path fill="url(#SVGID_1_)" d="M28.823,2.262c2.208-0.209,4.439-0.15,6.629,0.213c0.731,0.123,1.45,0.28,2.165,0.475
		c0.952,0.258,1.896,0.564,2.823,0.926c3.717,1.44,7.203,3.708,10.209,6.808c5.172,5.337,8.023,12.737,8.521,19.766h1.368v-0.008
		c-0.584-7.003-3.472-14.357-8.63-19.679C47.944,6.675,43.155,4.008,38.11,2.76c-1.007-0.249-2.029-0.439-3.06-0.559
		c-0.936-0.102-1.878-0.152-2.818-0.152C31.095,2.049,29.955,2.121,28.823,2.262"/>
	<linearGradient id="SVGID_2_" gradientUnits="userSpaceOnUse" x1="51.9966" y1="29.8657" x2="1.5015" y2="29.8657">
		<stop  offset="0" style="stop-color:#FFD240"/>
		<stop  offset="1" style="stop-color:#F5871F"/>
	</linearGradient>
	<path fill="url(#SVGID_2_)" d="M15.667,5.754C1.808,14.511-2.643,33.365,5.727,47.862c2.593,4.491,6.113,8.039,10.146,10.536
		c-3.66-2.448-6.85-5.788-9.248-9.943C-1.71,34.016,2.721,15.24,16.523,6.519c7.725-4.882,16.743-5.579,24.653-2.716
		c0.988,0.357,1.96,0.771,2.911,1.241c2.926,1.451,5.588,3.443,7.909,5.808c-2.306-2.532-5.009-4.664-7.995-6.242
		c-0.967-0.51-1.957-0.96-2.968-1.352c-3.27-1.266-6.743-1.924-10.242-1.924C25.63,1.333,20.405,2.76,15.667,5.754"/>
	<linearGradient id="SVGID_3_" gradientUnits="userSpaceOnUse" x1="58.2959" y1="53.9624" x2="7.937" y2="53.9624">
		<stop  offset="0.004" style="stop-color:#F5871F"/>
		<stop  offset="0.1724" style="stop-color:#FFD240"/>
		<stop  offset="1" style="stop-color:#F5871F"/>
	</linearGradient>
	<path fill="url(#SVGID_3_)" d="M56.658,44.656c-1.365,3.145-3.275,6.093-5.727,8.695c-11.183,11.868-29.443,12.001-40.783,0.301
		c-0.793-0.817-1.53-1.671-2.211-2.555c0.844,1.166,1.777,2.283,2.802,3.34c11.529,11.892,30.089,11.757,41.457-0.304
		c2.672-2.835,4.7-6.051,6.1-9.473l-1.365-0.005H56.658z"/>
	<linearGradient id="SVGID_4_" gradientUnits="userSpaceOnUse" x1="54.7607" y1="18.1538" x2="2.9995" y2="18.1538">
		<stop  offset="0" style="stop-color:#FFD240"/>
		<stop  offset="1" style="stop-color:#F5871F"/>
	</linearGradient>
	<path fill="url(#SVGID_4_)" d="M30.817,3.558c-7.467,0.045-15.09,3.409-20.123,9.229C6.79,17.268,4.256,22.994,3.347,28.971
		c-0.2,1.24-0.358,2.521-0.347,3.781c0.712-6.08,5.869-16.048,10.572-19.74c5.06-3.968,12.212-5.769,18.362-5.412
		c8.474,0.466,19.586,8.454,21.949,18.55c0.627-2.337,0.784-4.124,0.878-7.348C50.713,9.052,38.89,3.555,31.068,3.555
		C30.983,3.555,30.9,3.556,30.817,3.558"/>
	<linearGradient id="SVGID_5_" gradientUnits="userSpaceOnUse" x1="5.5288" y1="49.6523" x2="55.6895" y2="49.6523">
		<stop  offset="0" style="stop-color:#FFD240"/>
		<stop  offset="1" style="stop-color:#F5871F"/>
	</linearGradient>
	<path fill="url(#SVGID_5_)" d="M5.55,42.26c-0.075,0.424,0.058,0.843,0.203,1.234c3.637,9.525,12.221,16.459,21.921,17.86
		c11.715,1.753,23.095-5.058,28.015-16.533c-4.976,9.966-16.168,16.362-26.52,14.24C18.943,56.964,9.571,48.762,7.806,37.677
		C6.294,39.143,5.915,40.149,5.55,42.26"/>
</g>
</svg>
