<svg xmlns="http://www.w3.org/2000/svg" version="1.1" x="0" y="0" width="86" height="86" viewBox="0 0 86 86" enable-background="new 0 0 86 86" xml:space="preserve"><image display="none" overflow="visible" width="288" height="288" transform="matrix(0.9999 0 0 0.9999 -5.417 -2.5244)"/><path fill="none" stroke="#FFFFFF" stroke-width="2" stroke-linecap="round" stroke-linejoin="round" stroke-miterlimit="10" d="M31.3 47.2c-8.7-6.4-9-10.4-9-17.7s0.8-12.2 8-12.1C34 17.8 38 18.7 43 18.7M27 43.5c0 0 0.4 20.2 6.7 27.8 2 1.8 2.8 2.3 3.8-1.8S38.2 47.9 43 49.3M55 47.2c8.7-6.4 9-10.4 9-17.8 0-7.3-0.8-12.2-8-12.1 -3.7 0.5-7.7 1.3-12.7 1.3M58.3 44.5c0 0-0.4 19.2-6.7 26.9 -2 1.8-2.8 2.3-3.7-1.8s-0.7-21.6-5.6-20.2"/><path fill="none" stroke="#FFFFFF" stroke-width="2" stroke-miterlimit="10" d="M48 32.4c4.6-0.3 9.9-1 16-2M22.3 30.4c0 0 4.9 2.2 16.7 2.3"/><rect x="39" y="29" fill="none" stroke="#FFFFFF" stroke-width="2" stroke-linecap="round" stroke-linejoin="round" stroke-miterlimit="10" width="9" height="7"/></svg>