<svg xmlns="http://www.w3.org/2000/svg" version="1.1" x="0" y="0" width="86" height="86" viewBox="0 0 86 86" enable-background="new 0 0 86 86" xml:space="preserve"><g display="none"><image overflow="visible" width="288" height="288" transform="matrix(0.9999 0 0 0.9999 -4.3853 -195.1479)"/><g display="inline"><path fill="none" stroke="#FFFFFF" stroke-width="2" stroke-linecap="round" stroke-linejoin="round" stroke-miterlimit="10" d="M31.3 47.2c-8.7-6.4-9-10.4-9-17.7s0.8-12.2 8-12.1C34 17.8 38 18.7 43 18.7M27 43.5c0 0 0.4 20.2 6.7 27.8 2 1.8 2.8 2.3 3.8-1.8S38.2 47.9 43 49.3M55 47.2c8.7-6.4 9-10.4 9-17.8 0-7.3-0.8-12.2-8-12.1 -3.7 0.5-7.7 1.3-12.7 1.3M58.3 44.5c0 0-0.4 19.2-6.7 26.9 -2 1.8-2.8 2.3-3.7-1.8s-0.7-21.6-5.6-20.2"/></g><path display="inline" fill="none" stroke="#FFFFFF" stroke-width="2" stroke-miterlimit="10" d="M48 32.4c4.6-0.3 9.9-1 16-2M22.3 30.4c0 0 4.9 2.2 16.7 2.3"/><rect x="39" y="29" display="inline" fill="none" stroke="#FFFFFF" stroke-width="2" stroke-linecap="round" stroke-linejoin="round" stroke-miterlimit="10" width="9" height="7"/><polygon display="inline" fill="none" stroke="#FFFFFF" stroke-width="1.8" stroke-miterlimit="10" points=" 55.1 10.2 52.9 22.7 40.6 24.4 53.1 26.4 55.1 38.8 57.2 26.5 69.4 24.5 57 21.9 "/><polygon display="inline" fill="none" stroke="#FFFFFF" stroke-width="1.8" stroke-miterlimit="10" points=" 33 33.9 32.5 37 29.4 37.4 32.5 37.9 33 41.1 33.5 38 36.6 37.5 33.5 36.8 "/><polygon display="inline" fill="none" stroke="#FFFFFF" stroke-width="1.8" stroke-miterlimit="10" points=" 17 16 16.8 17.3 15.6 17.5 16.8 17.7 17 18.9 17.2 17.7 18.4 17.5 17.2 17.2 "/><polyline display="inline" fill="none" stroke="#FFFFFF" stroke-width="1.8" stroke-linecap="round" stroke-linejoin="round" stroke-miterlimit="10" points=" 27 42.6 31.6 39.9 34.1 40.5 35.8 43 37.5 44.5 38.4 40.5 39.8 39.9 41.4 42.2 44 43.5 45.8 39.4 48 43 52.2 40.5 55.3 36.6 61.1 41.5 "/><circle display="inline" fill="none" stroke="#FFFFFF" stroke-width="1.8" stroke-linecap="round" stroke-linejoin="round" stroke-miterlimit="10" cx="33.7" cy="52.3" r="2"/><circle display="inline" fill="none" stroke="#FFFFFF" stroke-width="1.8" stroke-linecap="round" stroke-linejoin="round" stroke-miterlimit="10" cx="33.7" cy="60.4" r="1"/><circle display="inline" fill="none" stroke="#FFFFFF" stroke-width="1.8" stroke-linecap="round" stroke-linejoin="round" stroke-miterlimit="10" cx="53" cy="54.2" r="2.6"/><circle display="inline" fill="none" stroke="#FFFFFF" stroke-width="1.8" stroke-linecap="round" stroke-linejoin="round" stroke-miterlimit="10" cx="49.2" cy="48.4" r="1.8"/></g><path fill="none" stroke="#FFFFFF" stroke-width="2" stroke-linecap="round" stroke-linejoin="round" stroke-miterlimit="10" d="M31.3 47.4c-8.7-6.4-9-10.5-9-17.9s0.8-12.2 8-12.1c0.6 0.1 1.2 0.2 1.9 0.3l0.9 3.9L35 23V28l1.4-0.5 -0.9 4.8 3.7-7.2 -2.2-0.6 1.2-2.6 -1.7-3.7c2 0.3 4.2 0.5 6.6 0.5M27 43.5c0 0 0.4 20.2 6.7 27.8 2 1.8 2.8 2.3 3.8-1.8S38.2 47.9 43 49.3M55 47.2c8.7-6.4 9-10.4 9-17.8 0-7.3-0.8-12.2-8-12.1 -3.7 0.5-7.7 1.3-12.7 1.3M58.3 44.5c0 0-0.4 19.2-6.7 26.9 -2 1.8-2.8 2.3-3.7-1.8s-0.7-21.6-5.6-20.2"/><g display="none"><image overflow="visible" width="288" height="288" transform="matrix(0.9999 0 0 0.9999 -4.3853 -195.1479)"/><g display="inline"><path fill="none" stroke="#FFFFFF" stroke-width="2" stroke-linecap="round" stroke-linejoin="round" stroke-miterlimit="10" d="M26.5 43c-4-4.3-4.2-8-4.2-13.6 0-7.3 0.8-12.2 8-12.1C34 17.8 38 18.7 43 18.7M59.8 43C63.8 38.7 64 35 64 29.4c0-7.3-0.8-12.2-8-12.1 -3.7 0.5-7.7 1.3-12.7 1.3M26.5 43 59.8 43 59.8 43"/></g><line display="inline" fill="none" stroke="#FFFFFF" stroke-width="2" stroke-linecap="round" stroke-linejoin="round" stroke-miterlimit="10" x1="26.5" y1="43" x2="59.8" y2="43"/><polygon display="inline" fill="none" stroke="#FFFFFF" stroke-width="2" stroke-linecap="round" stroke-linejoin="round" stroke-miterlimit="10" points=" 56 49 29 49 28 46 58 46 "/><polyline display="inline" fill="none" stroke="#FFFFFF" stroke-width="2" stroke-linecap="round" stroke-linejoin="round" stroke-miterlimit="10" points=" 31 52 55 52 55 72 43 75.4 "/><polyline display="inline" fill="none" stroke="#FFFFFF" stroke-width="2" stroke-linecap="round" stroke-linejoin="round" stroke-miterlimit="10" points=" 55 52 31 52 31 72 43 75.4 "/><line display="inline" fill="none" stroke="#FFFFFF" stroke-width="2" stroke-linecap="round" stroke-linejoin="round" stroke-miterlimit="10" x1="29.3" y1="53.6" x2="56.5" y2="55.1"/><line display="inline" fill="none" stroke="#FFFFFF" stroke-width="2" stroke-linecap="round" stroke-linejoin="round" stroke-miterlimit="10" x1="29.3" y1="56.6" x2="56.5" y2="58.1"/><line display="inline" fill="none" stroke="#FFFFFF" stroke-width="2" stroke-linecap="round" stroke-linejoin="round" stroke-miterlimit="10" x1="29.3" y1="59.6" x2="56.5" y2="61.1"/><line display="inline" fill="none" stroke="#FFFFFF" stroke-width="2" stroke-linecap="round" stroke-linejoin="round" stroke-miterlimit="10" x1="29.3" y1="62.6" x2="56.5" y2="64.1"/><line display="inline" fill="none" stroke="#FFFFFF" stroke-width="2" stroke-linecap="round" stroke-linejoin="round" stroke-miterlimit="10" x1="29.3" y1="65.6" x2="56.5" y2="67.1"/><line display="inline" fill="none" stroke="#FFFFFF" stroke-width="2" stroke-linecap="round" stroke-linejoin="round" stroke-miterlimit="10" x1="29.3" y1="68.6" x2="56.5" y2="70.1"/></g><g display="none"><image overflow="visible" width="288" height="288" transform="matrix(0.9999 0 0 0.9999 -4.3853 -195.1479)"/><g display="inline"><path fill="none" stroke="#FFFFFF" stroke-width="2" stroke-linecap="round" stroke-linejoin="round" stroke-miterlimit="10" d="M42.6 15.7c5 0 9-0.8 12.7-1.3 7.2-0.1 8 4.6 8 12 0 3.9-0.1 6.7-1.5 9.7H55v-5c0 0-0.4-2-2.5-2H43M42.9 46.4c4.8-1.3 4.5 16.1 5.4 20.2 0.9 4.1 1.7 3.6 3.7 1.7C58.3 60.7 61.4 39 61.4 39h-6.7c-1 0-3.1 0.3-3.1-2.9L51.3 32H43M43.2 15.7c-5 0-9.1-0.8-12.8-1.3 -7.2-0.1-8.1 4.6-8.1 12 0 3.9 0 6.7 1.5 9.7H31v-5c0 0 0.1-2 2.1-2H43M42.9 46.4c-4.8-1.3-4.6 16.1-5.5 20.2s-1.7 3.6-3.7 1.7C27.4 60.7 24.3 39 24.3 39H31c1 0 3.1 0.3 3.1-2.9L34.3 32H43"/></g></g><g display="none"><g display="inline"><path fill="none" stroke="#FFFFFF" stroke-width="2" stroke-linecap="round" stroke-linejoin="round" stroke-miterlimit="10" d="M31.3 47.2c-8.7-6.4-9-10.4-9-17.7s0.8-12.2 8-12.1C34 17.8 38 18.7 43 18.7M27 43.5c0 0 0.4 20.2 6.7 27.8 2 1.8 2.8 2.3 3.8-1.8S38.2 47.9 43 49.3M55 47.2c8.7-6.4 9-10.4 9-17.8 0-7.3-0.8-12.2-8-12.1 -3.7 0.5-7.7 1.3-12.7 1.3M58.3 44.5c0 0-0.4 19.2-6.7 26.9 -2 1.8-2.8 2.3-3.7-1.8s-0.7-21.6-5.6-20.2"/></g><g display="inline"><polygon fill="none" stroke="#FFFFFF" stroke-width="1.8" stroke-miterlimit="10" points="55.1 10.2 52.9 22.7 40.6 24.4 53.1 26.4 55.1 38.8 57.2 26.5 69.4 24.5 57 21.9 "/><polygon fill="none" stroke="#FFFFFF" stroke-width="1.8" stroke-miterlimit="10" points="33 33.9 32.5 37 29.4 37.4 32.5 37.9 33 41.1 33.5 38 36.6 37.5 33.5 36.8 "/><polygon fill="none" stroke="#FFFFFF" stroke-width="1.8" stroke-miterlimit="10" points="17 16 16.8 17.3 15.6 17.5 16.8 17.7 17 18.9 17.2 17.7 18.4 17.5 17.2 17.2 "/></g></g><g display="none"><g display="inline"><path fill="none" stroke="#FFFFFF" stroke-width="2" stroke-linecap="round" stroke-linejoin="round" stroke-miterlimit="10" d="M31.3 47.2c-8.7-6.4-9-10.4-9-17.7s0.8-12.2 8-12.1C34 17.8 38 18.7 43 18.7M27 43.5c0 0 0.4 20.2 6.7 27.8 2 1.8 2.8 2.3 3.8-1.8S38.2 47.9 43 49.3M55 47.2c8.7-6.4 9-10.4 9-17.8 0-7.3-0.8-12.2-8-12.1 -3.7 0.5-7.7 1.3-12.7 1.3M58.3 44.5c0 0-0.4 19.2-6.7 26.9 -2 1.8-2.8 2.3-3.7-1.8s-0.7-21.6-5.6-20.2"/></g><g display="inline"><polyline fill="none" stroke="#FFFFFF" stroke-width="1.8" stroke-linecap="round" stroke-linejoin="round" stroke-miterlimit="10" points=" 27 42.6 31.6 39.9 34.1 40.5 35.8 43 37.5 44.5 38.4 40.5 39.8 39.9 41.4 42.2 44 43.5 45.8 39.4 48 43 52.2 40.5 55.3 36.6 61.1 41.5 "/><circle fill="none" stroke="#FFFFFF" stroke-width="1.8" stroke-linecap="round" stroke-linejoin="round" stroke-miterlimit="10" cx="33.7" cy="52.3" r="2"/><circle fill="none" stroke="#FFFFFF" stroke-width="1.8" stroke-linecap="round" stroke-linejoin="round" stroke-miterlimit="10" cx="33.7" cy="60.4" r="1"/><circle fill="none" stroke="#FFFFFF" stroke-width="1.8" stroke-linecap="round" stroke-linejoin="round" stroke-miterlimit="10" cx="53" cy="54.2" r="2.6"/><circle fill="none" stroke="#FFFFFF" stroke-width="1.8" stroke-linecap="round" stroke-linejoin="round" stroke-miterlimit="10" cx="49.2" cy="48.4" r="1.8"/></g></g><g display="none"><g display="inline"><path fill="none" stroke="#FFFFFF" stroke-width="2" stroke-linecap="round" stroke-linejoin="round" stroke-miterlimit="10" d="M31.3 47.2c-8.7-6.4-9-10.4-9-17.7s0.8-12.2 8-12.1C34 17.8 38 18.7 43 18.7M27 43.5c0 0 0.4 20.2 6.7 27.8 2 1.8 2.8 2.3 3.8-1.8S38.2 47.9 43 49.3M55 47.2c8.7-6.4 9-10.4 9-17.8 0-7.3-0.8-12.2-8-12.1 -3.7 0.5-7.7 1.3-12.7 1.3M58.3 44.5c0 0-0.4 19.2-6.7 26.9 -2 1.8-2.8 2.3-3.7-1.8s-0.7-21.6-5.6-20.2"/></g><g display="inline"><path fill="none" stroke="#FFFFFF" stroke-width="2" stroke-miterlimit="10" d="M48 32.4c4.6-0.3 9.9-1 16-2M22.3 30.4c0 0 4.9 2.2 16.7 2.3"/><rect x="39" y="29" fill="none" stroke="#FFFFFF" stroke-width="2" stroke-linecap="round" stroke-linejoin="round" stroke-miterlimit="10" width="9" height="7"/></g></g></svg>