<?xml version="1.0" encoding="utf-8"?>
<!-- Generator: Adobe Illustrator 16.0.0, SVG Export Plug-In . SVG Version: 6.00 Build 0)  -->
<!DOCTYPE svg PUBLIC "-//W3C//DTD SVG 1.1//EN" "http://www.w3.org/Graphics/SVG/1.1/DTD/svg11.dtd">
<svg version="1.1" id="Layer_1" xmlns="http://www.w3.org/2000/svg" xmlns:xlink="http://www.w3.org/1999/xlink" x="0px" y="0px"
	 width="40px" height="52px" viewBox="0 0 40 52" enable-background="new 0 0 40 52" xml:space="preserve">
<g>
	<path fill="#9769B0" d="M20,0C8.955,0,0,8.954,0,20s20,32,20,32s20-20.954,20-32S31.047,0,20,0z M20,28c-5.521,0-10-4.477-10-10
		S14.479,8,20,8c5.523,0,10,4.477,10,10S25.523,28,20,28z"/>
	<path fill="#9769B0" d="M20,12c-3.309,0-6,2.691-6,6s2.691,6,6,6c3.311,0,6-2.691,6-6S23.309,12,20,12z"/>
</g>
</svg>
